<?xml version="1.0" encoding="UTF-8"?>
<svg width="16px" height="16px" viewBox="0 0 16 16" version="1.1" xmlns="http://www.w3.org/2000/svg" xmlns:xlink="http://www.w3.org/1999/xlink">
    <!-- Generator: Sketch 63.1 (92452) - https://sketch.com -->
    <title>Icons / APN</title>
    <desc>Created with Sketch.</desc>
    <defs>
        <path d="M12.9739177,10.7621038 C12.9639224,10.7121122 12.9339364,10.6821172 12.9139458,10.6321256 C12.8939552,10.582134 12.8839599,10.5321424 12.8639692,10.4821509 C12.9439318,10.3421744 13.0039037,10.1822013 13.0039037,10.0022316 C13.0039037,9.45232414 12.5541145,9.00239985 12.0043722,9.00239985 C11.4546299,9.00239985 11.0048407,9.45232414 11.0048407,10.0022316 C11.0048407,10.1822013 11.0648126,10.3421744 11.1447751,10.4821509 C11.1147892,10.5321424 11.1147892,10.582134 11.0947985,10.6321256 C11.0748079,10.6821172 11.044822,10.7121122 11.0348267,10.7621038 L9.03576372,18.7607579 C8.90582463,19.300667 9.2256747,19.8405762 9.76542169,19.9705543 C10.3051687,20.1005324 10.8449157,19.7805863 10.9748548,19.2406771 L11.5345924,17.001054 L12.474152,17.001054 L13.0338896,19.2406771 C13.1638287,19.7805863 13.713571,20.1005324 14.2433227,19.9705543 C14.7830697,19.8405762 15.1029197,19.2906687 14.9729806,18.7607579 L12.9739177,10.7621038 L12.9739177,10.7621038 Z M7.72637749,5.70295502 C8.10619945,5.30302232 8.09620413,4.67312831 7.70638686,4.28319392 C7.31656959,3.89325953 6.67686945,3.91325617 6.28705217,4.30319055 C3.23848119,7.42266566 3.23848119,12.5817976 6.28705217,15.7012727 C6.67686945,16.1012054 7.30657427,16.1012054 7.69639155,15.7212693 C8.08620882,15.3413332 8.09620413,14.7014409 7.71638218,14.3115065 C5.43745043,11.9619019 5.43745043,8.04256135 7.72637749,5.70295502 L7.72637749,5.70295502 Z M15.6026855,7.20270267 C15.1628916,6.87275819 14.5331868,6.96274305 14.2033414,7.40266902 C13.873496,7.842595 13.9634539,8.47248901 14.4032477,8.80243349 C14.8330462,9.12237966 14.9329994,10.7621038 14.3632664,11.2320247 C13.9434632,11.5819658 13.8834913,12.2118598 14.2333274,12.6417875 C14.5831634,13.0617168 15.2128682,13.1217067 15.6426667,12.7717656 C17.2319218,11.4419894 17.0320155,8.27252266 15.6026855,7.20270267 Z M17.7216922,4.30319055 C17.3318749,3.90325785 16.7021701,3.90325785 16.3123528,4.28319392 C15.9225355,4.66312999 15.9025449,5.30302232 16.2823669,5.70295502 C18.5712939,8.04256135 18.5712939,11.9619019 16.2823669,14.3015082 C15.8925496,14.6914426 15.9025449,15.3313349 16.3023575,15.711271 C16.7021701,16.0912071 17.3318749,16.0912071 17.7116969,15.6912744 C20.7602679,12.5817976 20.7602679,7.42266566 17.7216922,4.30319055 Z M9.40559036,11.2320247 C8.83585742,10.7621038 8.93581057,9.12237966 9.3656091,8.80243349 C9.80540295,8.47248901 9.89536078,7.842595 9.56551539,7.40266902 C9.23567001,6.96274305 8.60596518,6.87275819 8.16617134,7.20270267 C6.72684602,8.27252266 6.53693504,11.4419894 8.12619008,12.7717656 C8.5459933,13.1217067 9.17569812,13.0717151 9.53552945,12.6417875 C9.88536547,12.2218581 9.82539358,11.5819658 9.40559036,11.2320247 Z" id="path-1"></path>
    </defs>
    <g id="Иконки-CMP" stroke="none" stroke-width="1" fill="none" fill-rule="evenodd">
        <g id="Artboard" transform="translate(-2019.000000, -1915.000000)">
            <g id="Icons-/-APN" transform="translate(2015.000000, 1911.000000)">
                <rect id="Rectangle" x="0" y="0" width="24" height="24"></rect>
                <mask id="mask-2" fill="white">
                    <use xlink:href="#path-1"></use>
                </mask>
                <use id="cell-tower" fill="#6C808B" fill-rule="nonzero" xlink:href="#path-1"></use>
            </g>
        </g>
    </g>
</svg>