<svg width="24" height="24" viewBox="0 0 24 24" fill="none" xmlns="http://www.w3.org/2000/svg">
<g id="Icons / APN">
<path id="cell-tower" fill-rule="evenodd" clip-rule="evenodd" d="M7.72649 5.70289C8.10631 5.30296 8.09631 4.67307 7.7065 4.28313C7.31668 3.8932 6.67698 3.9132 6.28716 4.30313C3.23859 7.4226 3.23859 12.5817 6.28716 15.7012C6.67698 16.1011 7.30668 16.1011 7.6965 15.7212C8.08632 15.3413 8.09631 14.7014 7.71649 14.3114C5.43756 11.9618 5.43756 8.0425 7.72649 5.70289ZM12.974 10.762C12.9681 10.7323 12.9551 10.7097 12.9413 10.6857C12.9319 10.6693 12.9222 10.6523 12.9141 10.6321C12.9041 10.6071 12.8966 10.5821 12.8891 10.5571L12.8891 10.5571C12.8816 10.5321 12.8741 10.5071 12.8641 10.4821C12.944 10.3421 13.004 10.1821 13.004 10.0022C13.004 9.45226 12.5542 9.00234 12.0045 9.00234C11.4547 9.00234 11.0049 9.45226 11.0049 10.0022C11.0049 10.1821 11.0649 10.3421 11.1449 10.4821C11.1269 10.5121 11.1197 10.5421 11.1125 10.5721C11.1077 10.5921 11.1029 10.6121 11.0949 10.6321C11.0868 10.6523 11.077 10.6693 11.0676 10.6857C11.0539 10.7097 11.0409 10.7323 11.0349 10.762L9.03587 18.7607C8.90593 19.3006 9.22578 19.8405 9.76553 19.9705C10.3053 20.1005 10.845 19.7805 10.975 19.2406L11.5347 17.001H12.4743L13.034 19.2406C13.1639 19.7805 13.7137 20.1005 14.2434 19.9705C14.7832 19.8405 15.103 19.2906 14.9731 18.7607L12.974 10.762ZM14.2034 7.40261C14.5333 6.96268 15.163 6.8727 15.6028 7.20264C17.0321 8.27246 17.232 11.4419 15.6428 12.7717C15.213 13.1216 14.5833 13.0617 14.2334 12.6417C13.8836 12.2118 13.9436 11.5819 14.3634 11.232C14.9331 10.762 14.8332 9.12232 14.4034 8.80237C13.9636 8.47243 13.8736 7.84253 14.2034 7.40261ZM17.7218 4.30313C17.332 3.9032 16.7023 3.9032 16.3125 4.28313C15.9226 4.66307 15.9027 5.30296 16.2825 5.70289C18.5714 8.0425 18.5714 11.9618 16.2825 14.3014C15.8927 14.6914 15.9027 15.3313 16.3025 15.7112C16.7023 16.0911 17.332 16.0911 17.7118 15.6912C20.7604 12.5817 20.7604 7.4226 17.7218 4.30313ZM9.36572 8.80237C8.93592 9.12232 8.83597 10.762 9.4057 11.232C9.8255 11.5819 9.88547 12.2218 9.53564 12.6417C9.17581 13.0717 8.5461 13.1216 8.1263 12.7717C6.53704 11.4419 6.72695 8.27246 8.16628 7.20264C8.60607 6.8727 9.23578 6.96268 9.56562 7.40261C9.89547 7.84253 9.80551 8.47243 9.36572 8.80237Z" fill="#6C808B"/>
</g>
</svg>
