<?xml version="1.0" encoding="UTF-8"?>
<svg width="16px" height="16px" viewBox="0 0 16 16" version="1.1" xmlns="http://www.w3.org/2000/svg" xmlns:xlink="http://www.w3.org/1999/xlink">
    <!-- Generator: Sketch 63.1 (92452) - https://sketch.com -->
    <title>Icons / Block IMEI</title>
    <desc>Created with Sketch.</desc>
    <defs>
        <path d="M12,4.00499688 C16.4172392,4.00499688 19.9950031,7.58276077 19.9950031,12 C19.9950031,16.4172392 16.4172392,19.9950031 12,19.9950031 C7.58276077,19.9950031 4.00499688,16.4172392 4.00499688,12 C4.00499688,7.58276077 7.58276077,4.00499688 12,4.00499688 Z M10.2882587,12.0049969 C10.1280298,12.0049969 9.98496826,12.0737469 9.88196397,12.1862469 L8.17094824,14.0612469 C8.06794394,14.1737469 8.00499688,14.3299969 8.00499688,14.4987469 C8.00499688,14.6737469 8.06794394,14.8299969 8.17094824,14.9424969 L9.88196397,16.8174969 C9.99069073,16.9299969 10.1337522,16.9987469 10.2882587,16.9987469 C10.602994,16.9987469 10.8605047,16.7174969 10.8605047,16.3737469 C10.8605047,16.1987469 10.7975577,16.0424969 10.6945534,15.9299969 L9.95635596,15.1237469 L15.4327508,15.1237469 C15.7474861,15.1237469 16.0049969,14.8424969 16.0049969,14.4987469 C16.0049969,14.1549969 15.7474861,13.8799969 15.4327508,13.8799969 L9.95635596,13.8799969 L10.6945534,13.0737469 C10.7975577,12.9549969 10.8605047,12.7987469 10.8605047,12.6299969 C10.8605047,12.2862469 10.602994,12.0049969 10.2882587,12.0049969 Z M13.7217351,7.00499688 C13.4069997,7.00499688 13.149489,7.28624688 13.149489,7.62999688 C13.149489,7.80499688 13.2124361,7.96124688 13.3154404,8.07374688 L14.0536378,8.87999688 L8.57724294,8.87999688 C8.26250761,8.87999688 8.00499688,9.16124688 8.00499688,9.50499688 C8.01071934,9.84874688 8.26250761,10.1237469 8.57724294,10.1237469 L14.0536378,10.1237469 L13.3154404,10.9299969 C13.2124361,11.0487469 13.149489,11.2049969 13.149489,11.3737469 C13.149489,11.7174969 13.4069997,11.9987469 13.7217351,11.9987469 C13.881964,11.9987469 14.0250255,11.9299969 14.1280298,11.8174969 L15.8390455,9.94249688 C15.9420498,9.82999688 16.0049969,9.67374688 16.0049969,9.49874688 C16.0049969,9.32374688 15.9420498,9.16749688 15.8390455,9.05499688 L14.1280298,7.17999688 C14.019303,7.07374688 13.8762415,7.00499688 13.7217351,7.00499688 Z" id="path-1"></path>
    </defs>
    <g id="Иконки-CMP" stroke="none" stroke-width="1" fill="none" fill-rule="evenodd">
        <g id="Artboard" transform="translate(-1979.000000, -1955.000000)">
            <g id="Icons-/-Block-IMEI" transform="translate(1975.000000, 1951.000000)">
                <rect id="Rectangle" x="0" y="0" width="24" height="24"></rect>
                <mask id="mask-2" fill="white">
                    <use xlink:href="#path-1"></use>
                </mask>
                <use id="error" fill="#D34C4C" fill-rule="nonzero" xlink:href="#path-1"></use>
            </g>
        </g>
    </g>
</svg>