<svg width="32" height="32" viewBox="0 0 32 32" fill="none" xmlns="http://www.w3.org/2000/svg">
<rect width="32" height="32" fill="white"/>
<path d="M24.0189 12.18V7C24.0189 6.73478 23.9133 6.48043 23.7253 6.29289C23.5373 6.10536 23.2823 6 23.0165 6C22.7507 6 22.4957 6.10536 22.3077 6.29289C22.1198 6.48043 22.0141 6.73478 22.0141 7V12.18C21.4336 12.3902 20.9321 12.7736 20.5776 13.2782C20.2232 13.7827 20.033 14.3839 20.033 15C20.033 15.6161 20.2232 16.2173 20.5776 16.7218C20.9321 17.2264 21.4336 17.6098 22.0141 17.82V25C22.0141 25.2652 22.1198 25.5196 22.3077 25.7071C22.4957 25.8946 22.7507 26 23.0165 26C23.2823 26 23.5373 25.8946 23.7253 25.7071C23.9133 25.5196 24.0189 25.2652 24.0189 25V17.82C24.5994 17.6098 25.1009 17.2264 25.4554 16.7218C25.8099 16.2173 26 15.6161 26 15C26 14.3839 25.8099 13.7827 25.4554 13.2782C25.1009 12.7736 24.5994 12.3902 24.0189 12.18V12.18ZM23.0165 16C22.8183 16 22.6245 15.9414 22.4596 15.8315C22.2948 15.7216 22.1663 15.5654 22.0904 15.3827C22.0146 15.2 21.9947 14.9989 22.0334 14.8049C22.0721 14.6109 22.1675 14.4327 22.3077 14.2929C22.4479 14.153 22.6265 14.0578 22.821 14.0192C23.0154 13.9806 23.2169 14.0004 23.4001 14.0761C23.5832 14.1518 23.7398 14.28 23.8499 14.4444C23.9601 14.6089 24.0189 14.8022 24.0189 15C24.0189 15.2652 23.9133 15.5196 23.7253 15.7071C23.5373 15.8946 23.2823 16 23.0165 16ZM17.0024 18.18V7C17.0024 6.73478 16.8968 6.48043 16.7088 6.29289C16.5208 6.10536 16.2658 6 16 6C15.7342 6 15.4792 6.10536 15.2912 6.29289C15.1032 6.48043 14.9976 6.73478 14.9976 7V18.18C14.4171 18.3902 13.9156 18.7736 13.5611 19.2782C13.2067 19.7827 13.0165 20.3839 13.0165 21C13.0165 21.6161 13.2067 22.2173 13.5611 22.7218C13.9156 23.2264 14.4171 23.6098 14.9976 23.82V25C14.9976 25.2652 15.1032 25.5196 15.2912 25.7071C15.4792 25.8946 15.7342 26 16 26C16.2658 26 16.5208 25.8946 16.7088 25.7071C16.8968 25.5196 17.0024 25.2652 17.0024 25V23.82C17.5829 23.6098 18.0844 23.2264 18.4389 22.7218C18.7933 22.2173 18.9835 21.6161 18.9835 21C18.9835 20.3839 18.7933 19.7827 18.4389 19.2782C18.0844 18.7736 17.5829 18.3902 17.0024 18.18ZM16 22C15.8018 22 15.608 21.9414 15.4431 21.8315C15.2783 21.7216 15.1498 21.5654 15.0739 21.3827C14.9981 21.2 14.9782 20.9989 15.0169 20.8049C15.0556 20.6109 15.151 20.4327 15.2912 20.2929C15.4314 20.153 15.61 20.0578 15.8044 20.0192C15.9989 19.9806 16.2004 20.0004 16.3836 20.0761C16.5667 20.1518 16.7233 20.28 16.8334 20.4444C16.9436 20.6089 17.0024 20.8022 17.0024 21C17.0024 21.2652 16.8968 21.5196 16.7088 21.7071C16.5208 21.8946 16.2658 22 16 22ZM9.98585 10.18V7C9.98585 6.73478 9.88025 6.48043 9.69227 6.29289C9.50429 6.10536 9.24934 6 8.98349 6C8.71765 6 8.4627 6.10536 8.27472 6.29289C8.08674 6.48043 7.98114 6.73478 7.98114 7V10.18C7.40062 10.3902 6.89905 10.7736 6.5446 11.2782C6.19015 11.7827 6 12.3839 6 13C6 13.6161 6.19015 14.2173 6.5446 14.7218C6.89905 15.2264 7.40062 15.6098 7.98114 15.82V25C7.98114 25.2652 8.08674 25.5196 8.27472 25.7071C8.4627 25.8946 8.71765 26 8.98349 26C9.24934 26 9.50429 25.8946 9.69227 25.7071C9.88025 25.5196 9.98585 25.2652 9.98585 25V15.82C10.5664 15.6098 11.0679 15.2264 11.4224 14.7218C11.7768 14.2173 11.967 13.6161 11.967 13C11.967 12.3839 11.7768 11.7827 11.4224 11.2782C11.0679 10.7736 10.5664 10.3902 9.98585 10.18V10.18ZM8.98349 14C8.78525 14 8.59145 13.9414 8.42661 13.8315C8.26178 13.7216 8.1333 13.5654 8.05744 13.3827C7.98157 13.2 7.96172 12.9989 8.0004 12.8049C8.03907 12.6109 8.13454 12.4327 8.27472 12.2929C8.4149 12.153 8.59351 12.0578 8.78794 12.0192C8.98238 11.9806 9.18392 12.0004 9.36708 12.0761C9.55024 12.1518 9.70678 12.28 9.81692 12.4444C9.92707 12.6089 9.98585 12.8022 9.98585 13C9.98585 13.2652 9.88025 13.5196 9.69227 13.7071C9.50429 13.8946 9.24934 14 8.98349 14Z" fill="#333333"/>
</svg>
