<svg width="32" height="32" viewBox="0 0 32 32" fill="none" xmlns="http://www.w3.org/2000/svg">
<rect width="32" height="32" fill="white"/>
<path fill-rule="evenodd" clip-rule="evenodd" d="M30 19.6891C29.9909 20.6964 29.7978 21.6936 29.43 22.6312L31 25.5233L28.77 27.9951L25.45 27.0744C22.9869 28.3452 20.0533 28.3053 17.6256 26.9681C15.1979 25.6309 13.5948 23.1719 13.35 20.4097C11.4081 20.8951 9.35588 20.6531 7.58 19.7292L4 20.7299L2 18.018L3.54 15.286C3.18248 14.3464 2.99948 13.3493 3 12.3439C2.79289 7.72906 6.35815 4.21683 10.9697 4.00958C15.5813 3.80232 19.4929 6.97853 19.7 11.5934C22.1837 10.9803 24.8112 11.5462 26.823 13.1275C28.8348 14.7088 30.0067 17.1292 30 19.6891ZM19.43 19L20.9 20.56L24.32 16.94L25.78 18.32L21.34 23H20.45L18 20.38L19.43 19ZM8.19 17.81L7.9 17.64L4.81 18.42L4.32 17.77L5.76 15.3L5.58 14.89C4.31042 12.0299 5.30994 8.67128 7.93672 6.97074C10.5635 5.2702 14.037 5.73309 16.1268 8.06217C18.2166 10.3913 18.3017 13.8944 16.3274 16.3222C14.3532 18.75 10.9063 19.381 8.2 17.81H8.19ZM25.16 24.93L28 25.7L28.4 25.19L27.23 22.64L27.41 22.23C28.4281 19.9295 27.9872 17.2445 26.287 15.3903C24.5868 13.5361 21.9499 12.8647 19.57 13.68C19.1509 16.2355 17.5699 18.4519 15.29 19.68C15.2885 21.9449 16.4991 24.0374 18.4632 25.1651C20.4274 26.2927 22.8448 26.2832 24.8 25.14L25.16 24.93ZM11.37 17.1C11.9775 17.1 12.47 16.6075 12.47 16C12.47 15.3925 11.9775 14.9 11.37 14.9C10.7625 14.9 10.27 15.3925 10.27 16C10.27 16.6075 10.7625 17.1 11.37 17.1ZM10.49 14H11.36C13.0169 14 14.36 12.6569 14.36 11C14.36 9.34315 13.0169 8 11.36 8C9.70315 8 8.36 9.34315 8.36 11H10.36C10.36 10.4477 10.8077 10 11.36 10C11.9123 10 12.36 10.4477 12.36 11C12.36 11.5523 11.9123 12 11.36 12H10.49V14Z" fill="#333333"/>
</svg>
