<svg width="32" height="32" viewBox="0 0 32 32" fill="none" xmlns="http://www.w3.org/2000/svg">
<rect width="32" height="32" fill="white"/>
<path fill-rule="evenodd" clip-rule="evenodd" d="M19.8284 5.01513C24.8996 7.24401 27.7862 12.6545 26.8136 18.1079C29.2243 19.947 29.6877 23.3922 27.8486 25.8029C26.0095 28.2136 22.5643 28.677 20.1536 26.8379C15.151 29.2169 9.17007 27.8625 5.68045 23.5604C2.19084 19.2583 2.09946 13.1266 5.45934 8.72244C8.81922 4.31828 14.7571 2.78625 19.8284 5.01513ZM15.0136 8.98789H11.0136V14.9879H9.01358V16.9879H11.0136V18.9879H9.01358V20.9879H11.0136V22.9879H13.0136V20.9879H17.0136V18.9879H13.0136V16.9879H15.0136C17.2227 16.9879 19.0136 15.197 19.0136 12.9879C19.0136 10.7788 17.2227 8.98789 15.0136 8.98789ZM15.0136 14.9879H13.0136V10.9879H15.0136C16.1181 10.9879 17.0136 11.8833 17.0136 12.9879C17.0136 14.0925 16.1181 14.9879 15.0136 14.9879ZM5.01358 15.9879C5.01358 10.465 9.49073 5.98789 15.0136 5.98789C20.5364 5.98789 25.0136 10.465 25.0136 15.9879C25.0107 16.3891 24.984 16.7898 24.9336 17.1879C22.7999 16.6178 20.5325 17.3843 19.1823 19.1321C17.8321 20.8798 17.6631 23.2673 18.7536 25.1879C15.6837 26.426 12.2001 26.0647 9.44956 24.223C6.69906 22.3814 5.03813 19.2979 5.01358 15.9879ZM20.1878 23.6221C20.6743 25.0424 22.0123 25.9942 23.5136 25.9879C24.6794 25.971 25.7603 25.3748 26.3963 24.3976C27.0324 23.4205 27.1401 22.1907 26.6836 21.1179L24.0136 23.9879H22.8936L21.3836 22.3279L22.8736 20.9879L23.4436 21.6679L25.4436 19.5779C24.1954 18.7438 22.5543 18.7986 21.3645 19.7141C20.1747 20.6296 19.7013 22.2019 20.1878 23.6221Z" fill="#333333"/>
</svg>
